HIERARCHY
ROOT SpineBase
{
  OFFSET 0.000000 0.000000 0.000000
  CHANNELS 6 Xposition Yposition Zposition Zrotation Xrotation Yrotation
  JOINT SpineMid
  {
    OFFSET -0.000000 29.913315 0.000000
    CHANNELS 3 Zrotation Xrotation Yrotation
    JOINT SpineShoulder
    {
      OFFSET 0.053210 22.252245 -1.033260
      CHANNELS 3 Zrotation Xrotation Yrotation
      JOINT Neck
      {
        OFFSET 0.072676 7.352200 -0.659537
        CHANNELS 3 Zrotation Xrotation Yrotation
        JOINT Head
        {
          OFFSET -4.343676 13.160311 2.491371
          CHANNELS 3 Zrotation Xrotation Yrotation
          End Site
          {
            OFFSET 0 0 0
          }
        }
      }
      JOINT ShoulderLeft
      {
        OFFSET -12.332467 -3.534070 12.691585
        CHANNELS 3 Zrotation Xrotation Yrotation
        JOINT ElbowLeft
        {
          OFFSET -2.058033 -26.202150 -1.106435
          CHANNELS 3 Zrotation Xrotation Yrotation
          JOINT WristLeft
          {
            OFFSET 0.333258 -19.846514 -18.219997
            CHANNELS 3 Zrotation Xrotation Yrotation
            JOINT HandLeft
            {
              OFFSET -0.226271 -7.239044 -4.861912
              CHANNELS 3 Zrotation Xrotation Yrotation
              JOINT HandTipLeft
              {
                OFFSET -0.919922 -5.808765 -4.579599
                CHANNELS 3 Zrotation Xrotation Yrotation
                End Site
                {
                  OFFSET 0 0 0
                }
              }
              JOINT ThumbLeft
              {
                OFFSET 2.458257 3.391590 -3.626647
                CHANNELS 3 Zrotation Xrotation Yrotation
                End Site
                {
                  OFFSET 0 0 0
                }
              }
            }
          }
        }
      }
      JOINT ShoulderRight
      {
        OFFSET 8.265925 -4.250507 -12.972924
        CHANNELS 3 Zrotation Xrotation Yrotation
        JOINT ElbowRight
        {
          OFFSET 2.915117 -21.050692 -4.597085
          CHANNELS 3 Zrotation Xrotation Yrotation
          JOINT WristRight
          {
            OFFSET -10.795194 -19.821878 -1.564656
            CHANNELS 3 Zrotation Xrotation Yrotation
            JOINT HandRight
            {
              OFFSET -5.960318 -6.459109 0.706059
              CHANNELS 3 Zrotation Xrotation Yrotation
              JOINT HandTipRight
              {
                OFFSET -4.346786 -5.988178 -3.697100
                CHANNELS 3 Zrotation Xrotation Yrotation
                End Site
                {
                  OFFSET 0 0 0
                }
              }
              JOINT ThumbRight
              {
                OFFSET -5.240667 5.627738 -1.966686
                CHANNELS 3 Zrotation Xrotation Yrotation
                End Site
                {
                  OFFSET 0 0 0
                }
              }
            }
          }
        }
      }
    }
  }
  JOINT HipLeft
  {
    OFFSET -4.730154 0.420116 1.688752
    CHANNELS 3 Zrotation Xrotation Yrotation
    JOINT KneeLeft
    {
      OFFSET -13.717472 -19.429404 -25.444721
      CHANNELS 3 Zrotation Xrotation Yrotation
      JOINT AnkleLeft
      {
        OFFSET 10.299652 -24.622669 24.205831
        CHANNELS 3 Zrotation Xrotation Yrotation
        JOINT FootLeft
        {
          OFFSET -7.296179 -3.916098 -9.246646
          CHANNELS 3 Zrotation Xrotation Yrotation
          End Site
          {
            OFFSET 0 0 0
          }
        }
      }
    }
  }
  JOINT HipRight
  {
    OFFSET 4.754488 1.097612 -8.912142
    CHANNELS 3 Zrotation Xrotation Yrotation
    JOINT KneeRight
    {
      OFFSET 10.054363 -28.734702 3.808456
      CHANNELS 3 Zrotation Xrotation Yrotation
      JOINT AnkleRight
      {
        OFFSET 8.958321 -29.587495 7.443911
        CHANNELS 3 Zrotation Xrotation Yrotation
        JOINT FootRight
        {
          OFFSET -7.608447 -3.804964 -9.201876
          CHANNELS 3 Zrotation Xrotation Yrotation
          End Site
          {
            OFFSET 0 0 0
          }
        }
      }
    }
  }
}
MOTION
Frames: 6
Frame Time: 0.033333
-1.506664 68.771920 340.198660 0.000000 0.000000 48.180938 -0.000000 -0.000000 -48.180938 -0.000000 0.000000 0.000000 -0.000000 0.000000 0.000000 0.000000 0.000000 0.000000 -0.000000 0.000000 0.000000 -0.000000 0.000000 0.000000 -0.000000 0.000000 0.000000 -0.000000 0.000000 0.000000 0.000000 0.000000 0.000000 0.000000 0.000000 0.000000 -0.000000 0.000000 0.000000 -0.000000 0.000000 0.000000 -0.000000 0.000000 0.000000 -0.000000 0.000000 0.000000 0.000000 0.000000 0.000000 0.000000 0.000000 0.000000 -0.000000 -0.000000 -48.180938 -0.000000 0.000000 0.000000 -0.000000 0.000000 0.000000 0.000000 0.000000 0.000000 -0.000000 -0.000000 -48.180938 -0.000000 0.000000 0.000000 -0.000000 0.000000 0.000000 0.000000 0.000000 0.000000
-1.529596 68.859681 340.057278 -0.207245 -0.100136 48.520491 0.212290 -0.088941 -48.520508 -0.000000 0.000000 0.000000 -0.000000 0.000000 0.000000 0.000000 0.000000 0.000000 -0.000000 0.000000 0.000000 -0.000000 0.000000 0.000000 -0.000000 0.000000 0.000000 -0.000000 0.000000 0.000000 0.000000 0.000000 0.000000 0.000000 0.000000 0.000000 -0.000000 0.000000 0.000000 -0.000000 0.000000 0.000000 -0.990376 -0.759211 0.580711 1.805297 -1.582029 0.606183 0.000000 0.000000 0.000000 0.000000 0.000000 0.000000 1.071831 -1.020976 -50.203547 -2.261770 -0.131173 0.689598 0.996281 0.055248 0.998885 0.000000 0.000000 0.000000 0.212290 -0.088941 -48.520508 -0.000000 0.000000 0.000000 -0.000000 0.000000 0.000000 0.000000 0.000000 0.000000
-1.543089 68.937116 339.964025 -0.382215 -0.245854 48.789087 0.436768 -0.125562 -48.789429 -0.000000 0.000000 0.000000 0.936646 0.814434 0.084497 0.000000 0.000000 0.000000 -0.000000 0.000000 0.000000 -0.000000 0.000000 0.000000 -0.000000 0.000000 0.000000 -0.000000 0.000000 0.000000 0.000000 0.000000 0.000000 0.000000 0.000000 0.000000 -0.000000 0.000000 0.000000 -0.987965 0.549704 -0.215556 -0.833487 -2.075082 1.369324 3.440662 -2.968932 1.063032 0.000000 0.000000 0.000000 0.000000 0.000000 0.000000 1.878804 -1.885198 -51.732546 -4.046359 -0.094469 1.228187 1.772601 0.013637 1.737054 0.000000 0.000000 0.000000 0.436768 -0.125562 -48.789429 -0.000000 0.000000 0.000000 -0.000000 0.000000 0.000000 0.000000 0.000000 0.000000
-1.547145 69.004226 339.918902 -0.525015 -0.437209 48.989482 0.674422 -0.109284 -48.990842 -0.000000 0.000000 0.000000 1.312982 1.050523 0.085663 0.000000 0.000000 0.000000 -0.000000 0.000000 0.000000 -0.000000 0.000000 0.000000 -0.351231 0.920942 0.208785 0.347918 -0.922199 -0.203162 0.000000 0.000000 0.000000 0.000000 0.000000 0.000000 -0.744764 -0.796454 0.047288 -0.754171 1.506839 -0.293727 -1.004136 -2.999512 1.988995 4.900426 -4.167690 1.373148 0.000000 0.000000 0.000000 0.000000 0.000000 0.000000 2.435901 -2.570723 -52.775518 -5.358052 0.154163 1.620141 2.477856 0.096443 1.427941 0.000000 0.000000 0.000000 0.674422 -0.109284 -48.990842 -0.000000 0.000000 0.000000 0.180785 0.197518 -0.831622 0.000000 0.000000 0.000000
-1.541763 69.061010 339.921908 -0.635717 -0.674303 49.124046 0.117263 0.165280 -49.157191 0.167277 -0.203589 -0.010606 2.144490 1.855054 0.078882 0.000000 0.000000 0.000000 0.516311 0.681515 0.036530 -0.000000 0.000000 0.000000 -0.474927 0.936922 0.291930 0.470211 -0.939297 -0.284192 0.000000 0.000000 0.000000 0.000000 0.000000 0.000000 -0.548656 -0.416612 0.120033 -0.955732 1.888099 -0.306352 -1.016624 -3.838577 2.570228 6.182847 -5.186204 1.539714 0.000000 0.000000 0.000000 0.000000 0.000000 0.000000 2.753500 -3.063608 -53.335219 -6.196900 0.647806 1.864771 2.858968 -0.145634 1.512794 0.000000 0.000000 0.000000 0.925876 -0.039431 -49.127469 -0.000000 0.000000 0.000000 0.229028 0.211301 -0.976346 0.000000 0.000000 0.000000
-1.526943 69.107468 339.973044 -0.714358 -0.957279 49.194821 0.102011 0.195756 -49.234148 0.205712 -0.285474 -0.010333 2.472975 2.220512 0.017148 0.000000 0.000000 0.000000 0.144094 0.245707 0.123361 0.750114 0.036463 -0.379936 -0.913770 1.557593 0.684698 0.596152 -0.811645 -0.372633 0.000000 0.000000 0.000000 0.000000 0.000000 0.000000 -0.830406 -0.378210 0.160343 -1.133440 2.203700 -0.275697 -0.876058 -4.586304 3.115312 7.289504 -6.032401 1.566079 0.000000 0.000000 0.000000 0.000000 0.000000 0.000000 2.835920 -3.356338 -53.407485 -6.555308 1.409369 1.952825 3.018287 -0.533955 1.401216 0.000000 0.000000 0.000000 1.191409 0.084784 -49.201670 -0.000000 0.000000 0.000000 0.271189 0.199613 -1.055980 0.000000 0.000000 0.000000
